<?xml version="1.0" encoding="UTF-8" standalone="no"?>
<!-- Created with Inkscape (http://www.inkscape.org/) -->

<svg
   version="1.1"
   id="svg2"
   width="793.76001"
   height="1122.5601"
   viewBox="0 0 793.76001 1122.5601"
   sodipodi:docname="yashicaflex right side V2.svg"
   inkscape:version="1.2.2 (732a01da63, 2022-12-09)"
   xmlns:inkscape="http://www.inkscape.org/namespaces/inkscape"
   xmlns:sodipodi="http://sodipodi.sourceforge.net/DTD/sodipodi-0.dtd"
   xmlns="http://www.w3.org/2000/svg"
   xmlns:svg="http://www.w3.org/2000/svg">
  <defs
     id="defs6">
    <clipPath
       clipPathUnits="userSpaceOnUse"
       id="clipPath50">
      <path
         d="M -0.64,-0.64 H 19.84 V 18.879999 H -0.64 Z"
         clip-rule="evenodd"
         id="path48" />
    </clipPath>
  </defs>
  <sodipodi:namedview
     id="namedview4"
     pagecolor="#ffffff"
     bordercolor="#000000"
     borderopacity="0.25"
     inkscape:showpageshadow="2"
     inkscape:pageopacity="0.0"
     inkscape:pagecheckerboard="0"
     inkscape:deskcolor="#d1d1d1"
     showgrid="false"
     inkscape:zoom="0.74561715"
     inkscape:cx="394.30424"
     inkscape:cy="720.20876"
     inkscape:window-width="1920"
     inkscape:window-height="1017"
     inkscape:window-x="-8"
     inkscape:window-y="-8"
     inkscape:window-maximized="1"
     inkscape:current-layer="g10">
    <inkscape:page
       x="0"
       y="0"
       id="page8"
       width="793.76001"
       height="1122.5601" />
  </sodipodi:namedview>
  <g
     id="g10"
     inkscape:groupmode="layer"
     inkscape:label="Page 1"
     transform="translate(0,6.9397335e-5)">
    <g
       id="g12"
       transform="translate(521.44,616.79999)">
      <path
         d="m 0,0 2.56,-0.16 2.4,-0.64 2.4,-0.8 2.24,-1.28 1.92,-1.6 1.76,-1.92 1.44,-2.08 1.12,-2.24 0.64,-2.4 0.479999,-2.56 v -2.56 L 16.48,-20.799999 l -0.64,-2.400002 -1.12,-2.24 -1.44,-2.079999 -1.76,-1.920001 -1.92,-1.6 -2.24,-1.279999 -2.4,-0.799999 -2.4,-0.639999 -2.56,-0.16 -2.56,0.16 -2.4,0.639999 -2.4,0.799999 -2.24,1.279999 -1.92,1.6 -1.76,1.920001 -1.44,2.079999 -1.12,2.24 -0.64,2.400002 -0.479999,2.559999 v 2.56 l 0.479999,2.56 0.64,2.4 1.12,2.24 1.44,2.08 1.76,1.92 1.92,1.6 2.24,1.28 2.4,0.8 2.4,0.64 z"
         style="fill:none;stroke:#ff7f00;stroke-width:0.96;stroke-linecap:round;stroke-linejoin:bevel;stroke-miterlimit:10;stroke-dasharray:none;stroke-opacity:1"
         id="path14" />
    </g>
    <g
       id="g16">
      <path
         d="M 600.32001,690.08002 H 594.56 L 587.84003,682.88 V 680 h 12.47998 l -0.47998,-91.20001 h -13.60004"
         style="fill:none;stroke:#ff7f00;stroke-width:0.96;stroke-linecap:round;stroke-linejoin:round;stroke-miterlimit:10;stroke-dasharray:none;stroke-opacity:1"
         id="path18" />
    </g>
    <g
       id="g20"
       transform="translate(578.23999,580.79999)">
      <path
         d="M 0,0 0.16,1.6 0.64,3.04 1.44,4.48 2.4,5.6 3.52,6.72 4.96,7.36 6.4,7.84 8,8"
         style="fill:none;stroke:#ff7f00;stroke-width:0.96;stroke-linecap:round;stroke-linejoin:bevel;stroke-miterlimit:10;stroke-dasharray:none;stroke-opacity:1"
         id="path22" />
    </g>
    <g
       id="g24">
      <path
         d="M 578.08002,580.79999 V 568 l -100.32001,-0.64002"
         style="fill:none;stroke:#ff7f00;stroke-width:0.96;stroke-linecap:round;stroke-linejoin:round;stroke-miterlimit:10;stroke-dasharray:none;stroke-opacity:1"
         id="path26" />
    </g>
    <g
       id="g28"
       transform="translate(467.35999,709.76001)">
      <path
         d="m 0,0 4.48,-3.52 4.32,-4 4,-4.16 L 16.48,-16 20,-20.639999 23.040001,-25.440001 25.92,-30.4 l 2.719999,-5.12 2.24,-5.279999 1.92,-5.440003 1.600003,-5.439998 1.279998,-5.759999 0.959999,-5.600002 0.48,-5.760002 0.32,-5.759995 -0.16,-5.760002 -0.48,-5.760002 L 36.16,-91.68 34.880001,-97.279999 33.439999,-102.88 31.68,-108.32 29.6,-113.76 27.040001,-118.88 24.32,-124 l -3.039999,-4.8 -3.360001,-4.64 -3.68,-4.48 -3.84,-4.32"
         style="fill:none;stroke:#ff7f00;stroke-width:0.96;stroke-linecap:round;stroke-linejoin:bevel;stroke-miterlimit:10;stroke-dasharray:none;stroke-opacity:1"
         id="path30" />
    </g>
    <g
       id="g32">
      <path
         d="m 467.35999,709.76001 -40.96,0.15997"
         style="fill:none;stroke:#ff7f00;stroke-width:0.96;stroke-linecap:round;stroke-linejoin:round;stroke-miterlimit:10;stroke-dasharray:none;stroke-opacity:1"
         id="path34" />
    </g>
    <g
       id="g36"
       transform="translate(372.95999,567.84003)">
      <path
         d="m 0,0 -4.8,2.56 -4.48,2.88 -4.32,3.2 -4.16,3.36 -3.84,3.84 -3.520001,4 L -28.32,24 -31.360001,28.48 -34.080002,33.119999 -36.32,37.919998 -38.240002,42.880001 -39.84,48 l -1.279999,5.279999 -0.960003,5.280002 -0.479999,5.279999 -0.16,5.280003 0.319999,5.439995 0.480004,5.279998 0.959999,5.280007 1.439999,5.119995 1.760002,5.120003 2.079998,4.959999 2.400001,4.8 2.72,4.64 3.039999,4.32 3.36,4.16 3.68,4 3.840001,3.68 4.159999,3.36 4.32,3.04001 4.64,2.71998 4.8,2.40001 4.96,2.08 4.96,1.76 5.28,1.44 5.28,0.95999 5.280001,0.64002 L 32.32,144.64 37.759998,144.48 43.040001,144 48.32,143.2 l 5.279998,-1.28"
         style="fill:none;stroke:#ff7f00;stroke-width:0.96;stroke-linecap:round;stroke-linejoin:bevel;stroke-miterlimit:10;stroke-dasharray:none;stroke-opacity:1"
         id="path38" />
    </g>
    <g
       id="g40">
      <path
         d="m 372.79999,567.84003 h -1.75998 L 192.48,568.47998 v 6.23999 L 193.44,789.12"
         style="fill:none;stroke:#ff7f00;stroke-width:0.96;stroke-linecap:round;stroke-linejoin:round;stroke-miterlimit:10;stroke-dasharray:none;stroke-opacity:1"
         id="path42" />
    </g>
    <g
       id="g44"
       transform="translate(193.44,789.12)">
      <g
         id="g46"
         clip-path="url(#clipPath50)">
        <path
           d="m 0,0 0.16,2.4 0.48,2.4 0.8,2.4 1.12,2.24 1.44,1.92 1.6,1.92 1.92,1.6 2.08,1.44 2.24,0.960001 2.24,0.799999 2.4,0.479999 2.560001,0.16"
           style="fill:none;stroke:#ff7f00;stroke-width:0.96;stroke-linecap:round;stroke-linejoin:bevel;stroke-miterlimit:10;stroke-dasharray:none;stroke-opacity:1"
           id="path52" />
      </g>
    </g>
    <g
       id="g54">
      <path
         d="m 212.48,807.84003 252.8,-1.76001"
         style="fill:none;stroke:#ff7f00;stroke-width:0.96;stroke-linecap:round;stroke-linejoin:round;stroke-miterlimit:10;stroke-dasharray:none;stroke-opacity:1"
         id="path56" />
    </g>
    <g
       id="g58"
       transform="translate(537.28003,806.71997)">
      <path
         d="m 0,0 3.36,-4.16 2.72,-4.48 2.24,-4.8 1.76,-4.96 1.12,-5.12 0.48,-5.279999 v -5.280003 L 11.04,-39.360001 9.92,-44.48 l -1.76,-4.959999 -2.4,-4.800003 -2.72,-4.479999 -3.36,-4 -3.68,-3.839997 -4.16,-3.200004 -4.48,-2.879997 -4.640001,-2.239998 -4.959999,-1.760002 -5.120001,-1.279999 -5.279998,-0.64 h -5.279999 l -5.280003,0.479996 -5.119999,1.120003 -4.959999,1.760002 -4.800003,2.239998 -4.479999,2.720001 -4.16,3.199997 -3.839997,3.68 -3.36,4 -2.880005,4.48 -2.399994,4.639999 -1.760002,4.960003 -1.279999,5.119999 -0.800003,5.279999 V -29.6 l 0.480003,5.28 0.96,5.119999 L -80,-14.24 l 2.239998,4.8 2.720001,4.64 L -72,-0.64"
         style="fill:none;stroke:#ff7f00;stroke-width:0.96;stroke-linecap:round;stroke-linejoin:round;stroke-miterlimit:10;stroke-dasharray:none;stroke-opacity:1"
         id="path60" />
    </g>
    <g
       id="g62">
      <path
         d="m 537.28003,806.71997 38.56,-0.15997 v -18.71997"
         style="fill:none;stroke:#ff7f00;stroke-width:0.96;stroke-linecap:round;stroke-linejoin:round;stroke-miterlimit:10;stroke-dasharray:none;stroke-opacity:1"
         id="path64" />
    </g>
    <g
       id="g66"
       transform="translate(583.84003,779.84003)">
      <path
         d="M 0,0 -1.6,0.16 -3.04,0.64 -4.48,1.44 -5.6,2.4 -6.72,3.52 -7.36,4.96 -7.84,6.4 -8,8"
         style="fill:none;stroke:#ff7f00;stroke-width:0.96;stroke-linecap:round;stroke-linejoin:bevel;stroke-miterlimit:10;stroke-dasharray:none;stroke-opacity:1"
         id="path68" />
    </g>
    <g
       id="g70">
      <path
         d="m 583.84003,779.84003 h 15.67999 l 0.95996,-89.76001"
         style="fill:none;stroke:#ff7f00;stroke-width:0.96;stroke-linecap:round;stroke-linejoin:round;stroke-miterlimit:10;stroke-dasharray:none;stroke-opacity:1"
         id="path72" />
    </g>
  </g>
</svg>
