<?xml version="1.0" encoding="UTF-8" standalone="no"?>
<!-- Created with Inkscape (http://www.inkscape.org/) -->

<svg
   version="1.1"
   id="svg2"
   width="793.76001"
   height="1122.5601"
   viewBox="0 0 793.76001 1122.5601"
   sodipodi:docname="yashicaflex top V3.svg"
   inkscape:version="1.2.2 (732a01da63, 2022-12-09)"
   xmlns:inkscape="http://www.inkscape.org/namespaces/inkscape"
   xmlns:sodipodi="http://sodipodi.sourceforge.net/DTD/sodipodi-0.dtd"
   xmlns="http://www.w3.org/2000/svg"
   xmlns:svg="http://www.w3.org/2000/svg">
  <defs
     id="defs6">
    <clipPath
       clipPathUnits="userSpaceOnUse"
       id="clipPath22">
      <path
         d="M -0.16,-0.64 H 6.4 v 6.56 h -6.56 z"
         clip-rule="evenodd"
         id="path20" />
    </clipPath>
    <clipPath
       clipPathUnits="userSpaceOnUse"
       id="clipPath36">
      <path
         d="M -0.64,-6.24 H 6.08 V 0.32 H -0.64 Z"
         clip-rule="evenodd"
         id="path34" />
    </clipPath>
    <clipPath
       clipPathUnits="userSpaceOnUse"
       id="clipPath50">
      <path
         d="M -6.24,-5.92 H 0.48 V 0.8 h -6.72 z"
         clip-rule="evenodd"
         id="path48" />
    </clipPath>
    <clipPath
       clipPathUnits="userSpaceOnUse"
       id="clipPath64">
      <path
         d="M -5.76,-0.32 H 0.8 V 6.4 h -6.56 z"
         clip-rule="evenodd"
         id="path62" />
    </clipPath>
  </defs>
  <sodipodi:namedview
     id="namedview4"
     pagecolor="#ffffff"
     bordercolor="#000000"
     borderopacity="0.25"
     inkscape:showpageshadow="2"
     inkscape:pageopacity="0.0"
     inkscape:pagecheckerboard="0"
     inkscape:deskcolor="#d1d1d1"
     showgrid="false"
     inkscape:zoom="0.74561715"
     inkscape:cx="394.30424"
     inkscape:cy="561.95059"
     inkscape:window-width="1920"
     inkscape:window-height="1017"
     inkscape:window-x="-8"
     inkscape:window-y="-8"
     inkscape:window-maximized="1"
     inkscape:current-layer="g10">
    <inkscape:page
       x="0"
       y="0"
       id="page8"
       width="793.76001"
       height="1122.5601" />
  </sodipodi:namedview>
  <g
     id="g10"
     inkscape:groupmode="layer"
     inkscape:label="Page 1"
     transform="translate(0,6.9397335e-5)">
    <g
       id="g12">
      <path
         d="M 289.44,459.51999 V 662.56"
         style="fill:none;stroke:#000000;stroke-width:0.96;stroke-linecap:round;stroke-linejoin:round;stroke-miterlimit:10;stroke-dasharray:none;stroke-opacity:1"
         id="path14" />
    </g>
    <g
       id="g16"
       transform="translate(289.60001,662.56)">
      <g
         id="g18"
         clip-path="url(#clipPath22)">
        <path
           d="M 0,0 0.16,1.12 0.48,2.08 0.96,3.04 1.6,4 2.56,4.64 3.52,5.12 4.48,5.44 5.6,5.6"
           style="fill:none;stroke:#000000;stroke-width:0.96;stroke-linecap:round;stroke-linejoin:bevel;stroke-miterlimit:10;stroke-dasharray:none;stroke-opacity:1"
           id="path24" />
      </g>
    </g>
    <g
       id="g26">
      <path
         d="M 295.20001,668.32001 H 498.23999"
         style="fill:none;stroke:#000000;stroke-width:0.96;stroke-linecap:round;stroke-linejoin:round;stroke-miterlimit:10;stroke-dasharray:none;stroke-opacity:1"
         id="path28" />
    </g>
    <g
       id="g30"
       transform="translate(498.23999,668.15997)">
      <g
         id="g32"
         clip-path="url(#clipPath36)">
        <path
           d="M 0,0 1.12,-0.16 2.08,-0.48 3.04,-0.96 4,-1.6 4.64,-2.56 5.12,-3.52 5.44,-4.48 5.6,-5.6"
           style="fill:none;stroke:#000000;stroke-width:0.96;stroke-linecap:round;stroke-linejoin:bevel;stroke-miterlimit:10;stroke-dasharray:none;stroke-opacity:1"
           id="path38" />
      </g>
    </g>
    <g
       id="g40">
      <path
         d="M 504,662.56 V 459.51999"
         style="fill:none;stroke:#000000;stroke-width:0.96;stroke-linecap:round;stroke-linejoin:round;stroke-miterlimit:10;stroke-dasharray:none;stroke-opacity:1"
         id="path42" />
    </g>
    <g
       id="g44"
       transform="translate(503.84,459.51999)">
      <g
         id="g46"
         clip-path="url(#clipPath50)">
        <path
           d="M 0,0 -0.16,-1.12 -0.48,-2.08 -0.96,-3.04 -1.6,-4 -2.56,-4.64 -3.52,-5.12 -4.48,-5.44 -5.6,-5.6"
           style="fill:none;stroke:#000000;stroke-width:0.96;stroke-linecap:round;stroke-linejoin:bevel;stroke-miterlimit:10;stroke-dasharray:none;stroke-opacity:1"
           id="path52" />
      </g>
    </g>
    <g
       id="g54">
      <path
         d="M 498.23999,453.76001 H 295.20001"
         style="fill:none;stroke:#000000;stroke-width:0.96;stroke-linecap:round;stroke-linejoin:round;stroke-miterlimit:10;stroke-dasharray:none;stroke-opacity:1"
         id="path56" />
    </g>
    <g
       id="g58"
       transform="translate(295.20001,453.92001)">
      <g
         id="g60"
         clip-path="url(#clipPath64)">
        <path
           d="M 0,0 -1.12,0.16 -2.08,0.48 -3.04,0.96 -4,1.6 -4.64,2.56 -5.12,3.52 -5.44,4.48 -5.6,5.6"
           style="fill:none;stroke:#000000;stroke-width:0.96;stroke-linecap:round;stroke-linejoin:bevel;stroke-miterlimit:10;stroke-dasharray:none;stroke-opacity:1"
           id="path66" />
      </g>
    </g>
    <g
       id="g68">
      <path
         d="M 487.35999,560.96002 V 489.28 m -90.71998,-18.88001 h 71.84"
         style="fill:none;stroke:#000000;stroke-width:0.96;stroke-linecap:round;stroke-linejoin:round;stroke-miterlimit:10;stroke-dasharray:none;stroke-opacity:1"
         id="path70" />
    </g>
    <g
       id="g72"
       transform="translate(487.35999,489.28)">
      <path
         d="m 0,0 -0.16,-2.4 -0.48,-2.56 -0.8,-2.24 -1.12,-2.24 -1.28,-2.08 -1.76,-1.76 -1.76,-1.76 -2.08,-1.28 -2.24,-1.120001 -2.24,-0.799999 -2.56,-0.479999 -2.399999,-0.16"
         style="fill:none;stroke:#000000;stroke-width:0.96;stroke-linecap:round;stroke-linejoin:bevel;stroke-miterlimit:10;stroke-dasharray:none;stroke-opacity:1"
         id="path74" />
    </g>
    <g
       id="g76">
      <path
         d="M 396.64001,470.39999 H 324.95999"
         style="fill:none;stroke:#000000;stroke-width:0.96;stroke-linecap:round;stroke-linejoin:round;stroke-miterlimit:10;stroke-dasharray:none;stroke-opacity:1"
         id="path78" />
    </g>
    <g
       id="g80"
       transform="translate(324.95999,470.39999)">
      <path
         d="m 0,0 -2.4,0.16 -2.56,0.48 -2.24,0.8 -2.24,1.12 -2.08,1.28 -1.76,1.76 -1.76,1.76 -1.28,2.08 -1.120001,2.24 -0.799999,2.24 -0.479999,2.56 -0.16,2.399999"
         style="fill:none;stroke:#000000;stroke-width:0.96;stroke-linecap:round;stroke-linejoin:bevel;stroke-miterlimit:10;stroke-dasharray:none;stroke-opacity:1"
         id="path82" />
    </g>
    <g
       id="g84">
      <path
         d="m 306.07999,489.28 v 71.68002 71.83997"
         style="fill:none;stroke:#000000;stroke-width:0.96;stroke-linecap:round;stroke-linejoin:round;stroke-miterlimit:10;stroke-dasharray:none;stroke-opacity:1"
         id="path86" />
    </g>
    <g
       id="g88"
       transform="translate(306.07999,632.79999)">
      <path
         d="m 0,0 0.16,2.4 0.48,2.56 0.8,2.24 1.12,2.24 1.28,2.08 1.76,1.76 1.76,1.76 2.08,1.28 2.24,1.120001 2.24,0.799999 2.56,0.479999 2.399999,0.16"
         style="fill:none;stroke:#000000;stroke-width:0.96;stroke-linecap:round;stroke-linejoin:bevel;stroke-miterlimit:10;stroke-dasharray:none;stroke-opacity:1"
         id="path90" />
    </g>
    <g
       id="g92">
      <path
         d="m 324.95999,651.67999 h 71.68002 71.84"
         style="fill:none;stroke:#000000;stroke-width:0.96;stroke-linecap:round;stroke-linejoin:round;stroke-miterlimit:10;stroke-dasharray:none;stroke-opacity:1"
         id="path94" />
    </g>
    <g
       id="g96"
       transform="translate(468.48001,651.67999)">
      <path
         d="m 0,0 2.4,-0.16 2.56,-0.48 2.24,-0.8 2.24,-1.12 2.08,-1.28 1.76,-1.76 1.76,-1.76 1.28,-2.08 1.120001,-2.24 0.799999,-2.24 0.479999,-2.56 0.16,-2.399999"
         style="fill:none;stroke:#000000;stroke-width:0.96;stroke-linecap:round;stroke-linejoin:bevel;stroke-miterlimit:10;stroke-dasharray:none;stroke-opacity:1"
         id="path98" />
    </g>
    <g
       id="g100">
      <path
         d="m 487.35999,560.96002 v 71.83997 M 468,560.96002 V 493.44"
         style="fill:none;stroke:#000000;stroke-width:0.96;stroke-linecap:round;stroke-linejoin:round;stroke-miterlimit:10;stroke-dasharray:none;stroke-opacity:1"
         id="path102" />
    </g>
    <g
       id="g104">
      <path
         d="m 468,493.44 -0.16,-0.95999 -0.32001,-0.96002 -0.63999,-0.63999 -0.64001,-0.64001 -0.95999,-0.31998 -0.95999,-0.16"
         style="fill:none;stroke:#000000;stroke-width:0.96;stroke-linecap:round;stroke-linejoin:bevel;stroke-miterlimit:10;stroke-dasharray:none;stroke-opacity:1"
         id="path106" />
    </g>
    <g
       id="g108">
      <path
         d="m 464.32001,489.76001 h -67.68 H 329.12"
         style="fill:none;stroke:#000000;stroke-width:0.96;stroke-linecap:round;stroke-linejoin:round;stroke-miterlimit:10;stroke-dasharray:none;stroke-opacity:1"
         id="path110" />
    </g>
    <g
       id="g112">
      <path
         d="m 329.12,489.76001 -0.96,0.16 -0.80001,0.31998 -0.79999,0.64001 -0.63999,0.63999 -0.32,0.96002 L 325.44,493.44"
         style="fill:none;stroke:#000000;stroke-width:0.96;stroke-linecap:round;stroke-linejoin:bevel;stroke-miterlimit:10;stroke-dasharray:none;stroke-opacity:1"
         id="path114" />
    </g>
    <g
       id="g116">
      <path
         d="m 325.44,493.44 v 67.52002 67.67999"
         style="fill:none;stroke:#000000;stroke-width:0.96;stroke-linecap:round;stroke-linejoin:round;stroke-miterlimit:10;stroke-dasharray:none;stroke-opacity:1"
         id="path118" />
    </g>
    <g
       id="g120">
      <path
         d="m 325.44,628.64001 0.16001,0.95997 0.32,0.80004 0.63999,0.79999 0.79999,0.64002 0.80001,0.31994 0.96,0.16004"
         style="fill:none;stroke:#000000;stroke-width:0.96;stroke-linecap:round;stroke-linejoin:bevel;stroke-miterlimit:10;stroke-dasharray:none;stroke-opacity:1"
         id="path122" />
    </g>
    <g
       id="g124">
      <path
         d="m 329.12,632.32001 h 67.52001 67.68"
         style="fill:none;stroke:#000000;stroke-width:0.96;stroke-linecap:round;stroke-linejoin:round;stroke-miterlimit:10;stroke-dasharray:none;stroke-opacity:1"
         id="path126" />
    </g>
    <g
       id="g128">
      <path
         d="m 464.32001,632.32001 0.95999,-0.16004 0.95999,-0.31994 0.64001,-0.64002 0.63999,-0.79999 0.32001,-0.80004 0.16,-0.95997"
         style="fill:none;stroke:#000000;stroke-width:0.96;stroke-linecap:round;stroke-linejoin:bevel;stroke-miterlimit:10;stroke-dasharray:none;stroke-opacity:1"
         id="path130" />
    </g>
    <g
       id="g132">
      <path
         d="m 468,560.96002 v 67.67999"
         style="fill:none;stroke:#000000;stroke-width:0.96;stroke-linecap:round;stroke-linejoin:round;stroke-miterlimit:10;stroke-dasharray:none;stroke-opacity:1"
         id="path134" />
    </g>
  </g>
</svg>
